# xmcd
#
# Track frame offsets: 
#        150
#        24767
#        51391
#        57966
#        91103
#        115435
#        132104
#        163144
#
# Disc length: 2393 seconds
#
# Revision: 0
# Processed by: cddbd v1.5.2PL0 Copyright (c) Steve Scherf et al.
# Submitted via: ExactAudioCopy v0.95b4
#
DISCID=63095708
DTITLE=Groundhogs - Hogwash
DYEAR=1972
DGENRE=Rock
TTITLE0=I Love Miss Ogyny
TTITLE1=You Had A Lesson
TTITLE2=The Ringmaster
TTITLE3=3744 James Road
TTITLE4=Sad Is The Hunter
TTITLE5=S'one Song
TTITLE6=Earth Shanty
TTITLE7=Mr Hooker, Sir John
EXTD=
EXTT0=
EXTT1=
EXTT2=
EXTT3=
EXTT4=
EXTT5=
EXTT6=
EXTT7=
PLAYORDER=
